<svg width="256" height="256" viewBox="0 0 256 256" fill="none" xmlns="http://www.w3.org/2000/svg" role="img" aria-label="Quizzer logo">
  <defs>
    <linearGradient id="grad1" x1="0" y1="0" x2="1" y2="1">
      <stop offset="0%" stop-color="#1CA7EC"/>
      <stop offset="100%" stop-color="#764BA2"/>
    </linearGradient>
  </defs>
  <circle cx="128" cy="128" r="110" stroke="url(#grad1)" stroke-width="12" fill="none"/>

  <!-- Stand -->
  <path d="M96 172h64c4.418 0 8-3.582 8-8v-8H88v8c0 4.418 3.582 8 8 8z" fill="url(#grad1)"/>
  <path d="M100 172h56l12 24H88l12-24z" fill="url(#grad1)"/>

  <!-- Open book -->
  <path d="M88 92v44c0 4.418 3.582 8 8 8h28V92H96c-4.418 0-8 3.582-8 8z" fill="url(#grad1)"/>
  <path d="M168 92v44c0 4.418-3.582 8-8 8h-28V92h28c4.418 0 8 3.582 8 8z" fill="url(#grad1)"/>
  <rect x="84" y="100" width="88" height="6" rx="3" fill="url(#grad1)"/>

  <!-- Question mark (text-based for simplicity) -->
  <text x="128" y="124" text-anchor="middle" dominant-baseline="middle" font-family="Segoe UI, Arial, sans-serif" font-size="40" fill="#ffffff">?</text>
</svg>

